<svg xmlns="http://www.w3.org/2000/svg" width="720" height="1359" viewBox="0 0 720 1359" role="img">
<rect width="720" height="1359" fill="#F8F9FA" rx="10" stroke="#DADCE0"/>
<text x="16" y="26" font-family="Segoe UI, Arial, sans-serif" font-size="15" fill="#1F1F1F" font-weight="600" text-anchor="start" >Crear un cliente nuevo</text>
<text x="16" y="46" font-family="Segoe UI, Arial, sans-serif" font-size="11" fill="#5F6368" font-weight="400" text-anchor="start" >Quién puede: admin / admin de cobranza</text>
<circle cx="28" cy="70" r="11" fill="#E8F0FE"/>
<text x="28" y="74" font-family="Segoe UI, Arial, sans-serif" font-size="11.5" fill="#1A73E8" font-weight="600" text-anchor="middle" >1</text>
<text x="56" y="74" font-family="Segoe UI, Arial, sans-serif" font-size="12.5" fill="#1F1F1F" font-weight="600" text-anchor="start" >Clientes → botón «Nuevo cliente»</text>
<rect x="56" y="82" width="652" height="92" rx="10" fill="#FFFFFF" stroke="#DADCE0" stroke-width="1"/>
<line x1="56" y1="132" x2="708" y2="132" stroke="#DADCE0" stroke-width="0.8"/>
<path d="M78 105 L73 110 L78 115" stroke="#1F1F1F" stroke-width="1.5" fill="none" stroke-linecap="round" stroke-linejoin="round"/>
<text x="96" y="114.5" font-family="Segoe UI, Arial, sans-serif" font-size="13.5" fill="#1F1F1F" font-weight="600" text-anchor="start" >Clientes</text>
<circle cx="679" cy="109" r="4" stroke="#5F6368" stroke-width="1.5" fill="none" stroke-linecap="round" stroke-linejoin="round"/><path d="M682 112 L685.5 115.5" stroke="#5F6368" stroke-width="1.5" fill="none" stroke-linecap="round" stroke-linejoin="round"/>
<line x1="68" y1="169" x2="696" y2="169" stroke="#EEEEEE" stroke-width="0.8"/>
<circle cx="79" cy="150.0" r="4" stroke="#5F6368" stroke-width="1.5" fill="none" stroke-linecap="round" stroke-linejoin="round"/><path d="M82 153.0 L85.5 156.5" stroke="#5F6368" stroke-width="1.5" fill="none" stroke-linecap="round" stroke-linejoin="round"/>
<rect x="591" y="137.0" width="105" height="28" rx="14" fill="#1A73E8"/>
<text x="643.5" y="155.5" font-family="Segoe UI, Arial, sans-serif" font-size="11.5" fill="#FFFFFF" font-weight="500" text-anchor="middle" >Nuevo cliente</text>
<text x="98" y="155.2" font-family="Segoe UI, Arial, sans-serif" font-size="12.5" fill="#1F1F1F" font-weight="400" text-anchor="start" >Buscar por nombre, código, cédula, teléfono o contrato</text>
<circle cx="28" cy="200" r="11" fill="#E8F0FE"/>
<text x="28" y="204" font-family="Segoe UI, Arial, sans-serif" font-size="11.5" fill="#1A73E8" font-weight="600" text-anchor="middle" >2</text>
<text x="56" y="204" font-family="Segoe UI, Arial, sans-serif" font-size="12.5" fill="#1F1F1F" font-weight="600" text-anchor="start" >Datos personales (los * son obligatorios)</text>
<rect x="56" y="212" width="652" height="280" rx="10" fill="#FFFFFF" stroke="#DADCE0" stroke-width="1"/>
<text x="70" y="234" font-family="Segoe UI, Arial, sans-serif" font-size="10.5" fill="#5F6368" font-weight="600" text-anchor="start" >DATOS PERSONALES</text>
<rect x="68" y="253" width="628" height="32" rx="8" fill="#FFFFFF" stroke="#DADCE0" stroke-width="1"/>
<rect x="78" y="248" width="103" height="10" rx="2" fill="#FFFFFF"/>
<text x="82" y="256" font-family="Segoe UI, Arial, sans-serif" font-size="9.5" fill="#5F6368" font-weight="400" text-anchor="start" >Código de cliente *</text>
<text x="80" y="273.5" font-family="Segoe UI, Arial, sans-serif" font-size="12" fill="#1F1F1F" font-weight="400" text-anchor="start" >CL0102   (Ej. CL00027 — no se puede repetir)</text>
<rect x="68" y="299" width="628" height="32" rx="8" fill="#FFFFFF" stroke="#DADCE0" stroke-width="1"/>
<rect x="78" y="294" width="93" height="10" rx="2" fill="#FFFFFF"/>
<text x="82" y="302" font-family="Segoe UI, Arial, sans-serif" font-size="9.5" fill="#5F6368" font-weight="400" text-anchor="start" >Nombre completo *</text>
<text x="80" y="319.5" font-family="Segoe UI, Arial, sans-serif" font-size="12" fill="#1F1F1F" font-weight="400" text-anchor="start" >María Peña Ruíz</text>
<rect x="68" y="345" width="628" height="32" rx="8" fill="#FFFFFF" stroke="#DADCE0" stroke-width="1"/>
<rect x="78" y="340" width="39" height="10" rx="2" fill="#FFFFFF"/>
<text x="82" y="348" font-family="Segoe UI, Arial, sans-serif" font-size="9.5" fill="#5F6368" font-weight="400" text-anchor="start" >Cédula</text>
<text x="80" y="365.5" font-family="Segoe UI, Arial, sans-serif" font-size="12" fill="#1F1F1F" font-weight="400" text-anchor="start" >281-150692-0001A</text>
<rect x="68" y="391" width="628" height="32" rx="8" fill="#FFFFFF" stroke="#DADCE0" stroke-width="1"/>
<rect x="78" y="386" width="49" height="10" rx="2" fill="#FFFFFF"/>
<text x="82" y="394" font-family="Segoe UI, Arial, sans-serif" font-size="9.5" fill="#5F6368" font-weight="400" text-anchor="start" >Teléfono</text>
<text x="80" y="411.5" font-family="Segoe UI, Arial, sans-serif" font-size="12" fill="#1F1F1F" font-weight="400" text-anchor="start" >8836-0218</text>
<rect x="68" y="437" width="628" height="32" rx="8" fill="#FFFFFF" stroke="#DADCE0" stroke-width="1"/>
<rect x="78" y="432" width="98" height="10" rx="2" fill="#FFFFFF"/>
<text x="82" y="440" font-family="Segoe UI, Arial, sans-serif" font-size="9.5" fill="#5F6368" font-weight="400" text-anchor="start" >Correo electrónico</text>
<text x="80" y="481" font-family="Segoe UI, Arial, sans-serif" font-size="9.5" fill="#5F6368" font-weight="400" text-anchor="start" >opcional</text>
<circle cx="28" cy="518" r="11" fill="#E8F0FE"/>
<text x="28" y="522" font-family="Segoe UI, Arial, sans-serif" font-size="11.5" fill="#1A73E8" font-weight="600" text-anchor="middle" >3</text>
<text x="56" y="522" font-family="Segoe UI, Arial, sans-serif" font-size="12.5" fill="#1F1F1F" font-weight="600" text-anchor="start" >Ubicación, red y asignación (opcionales)</text>
<rect x="56" y="530" width="652" height="424" rx="10" fill="#FFFFFF" stroke="#DADCE0" stroke-width="1"/>
<text x="70" y="552" font-family="Segoe UI, Arial, sans-serif" font-size="10.5" fill="#5F6368" font-weight="600" text-anchor="start" >UBICACIÓN</text>
<rect x="68" y="571" width="628" height="32" rx="8" fill="#FFFFFF" stroke="#DADCE0" stroke-width="1"/>
<rect x="78" y="566" width="54" height="10" rx="2" fill="#FFFFFF"/>
<text x="82" y="574" font-family="Segoe UI, Arial, sans-serif" font-size="9.5" fill="#5F6368" font-weight="400" text-anchor="start" >Comunidad</text>
<text x="80" y="591.5" font-family="Segoe UI, Arial, sans-serif" font-size="12" fill="#1F1F1F" font-weight="400" text-anchor="start" >Chinandega → Somotillo → La Barrera</text>
<rect x="68" y="617" width="628" height="32" rx="8" fill="#FFFFFF" stroke="#DADCE0" stroke-width="1"/>
<rect x="78" y="612" width="54" height="10" rx="2" fill="#FFFFFF"/>
<text x="82" y="620" font-family="Segoe UI, Arial, sans-serif" font-size="9.5" fill="#5F6368" font-weight="400" text-anchor="start" >Dirección</text>
<text x="80" y="637.5" font-family="Segoe UI, Arial, sans-serif" font-size="12" fill="#1F1F1F" font-weight="400" text-anchor="start" >Calle, número, sector</text>
<rect x="68" y="663" width="628" height="32" rx="8" fill="#FFFFFF" stroke="#DADCE0" stroke-width="1"/>
<rect x="78" y="658" width="59" height="10" rx="2" fill="#FFFFFF"/>
<text x="82" y="666" font-family="Segoe UI, Arial, sans-serif" font-size="9.5" fill="#5F6368" font-weight="400" text-anchor="start" >Referencia</text>
<text x="80" y="683.5" font-family="Segoe UI, Arial, sans-serif" font-size="12" fill="#1F1F1F" font-weight="400" text-anchor="start" >Casa amarilla, frente al molino, etc.</text>
<rect x="68" y="709" width="628" height="32" rx="8" fill="#FFFFFF" stroke="#DADCE0" stroke-width="1"/>
<rect x="78" y="704" width="44" height="10" rx="2" fill="#FFFFFF"/>
<text x="82" y="712" font-family="Segoe UI, Arial, sans-serif" font-size="9.5" fill="#5F6368" font-weight="400" text-anchor="start" >Latitud</text>
<text x="80" y="729.5" font-family="Segoe UI, Arial, sans-serif" font-size="12" fill="#1F1F1F" font-weight="400" text-anchor="start" >13.04218</text>
<rect x="68" y="755" width="628" height="32" rx="8" fill="#FFFFFF" stroke="#DADCE0" stroke-width="1"/>
<rect x="78" y="750" width="49" height="10" rx="2" fill="#FFFFFF"/>
<text x="82" y="758" font-family="Segoe UI, Arial, sans-serif" font-size="9.5" fill="#5F6368" font-weight="400" text-anchor="start" >Longitud</text>
<text x="80" y="775.5" font-family="Segoe UI, Arial, sans-serif" font-size="12" fill="#1F1F1F" font-weight="400" text-anchor="start" >-86.90557</text>
<rect x="68" y="797" width="141" height="28" rx="14" fill="#FFFFFF" stroke="#DADCE0" stroke-width="1"/>
<text x="138.5" y="815.5" font-family="Segoe UI, Arial, sans-serif" font-size="11.5" fill="#1A73E8" font-weight="500" text-anchor="middle" >Seleccionar en mapa</text>
<text x="70" y="848" font-family="Segoe UI, Arial, sans-serif" font-size="10.5" fill="#5F6368" font-weight="600" text-anchor="start" >CONEXIÓN DE RED (OPCIONAL) · ASIGNACIÓN</text>
<rect x="68" y="867" width="628" height="32" rx="8" fill="#FFFFFF" stroke="#DADCE0" stroke-width="1"/>
<rect x="78" y="862" width="74" height="10" rx="2" fill="#FFFFFF"/>
<text x="82" y="870" font-family="Segoe UI, Arial, sans-serif" font-size="9.5" fill="#5F6368" font-weight="400" text-anchor="start" >Puerto de red</text>
<text x="80" y="887.5" font-family="Segoe UI, Arial, sans-serif" font-size="12" fill="#1F1F1F" font-weight="400" text-anchor="start" >Nodo Centro → Hub 2 → Puerto 5</text>
<rect x="68" y="913" width="628" height="32" rx="8" fill="#FFFFFF" stroke="#DADCE0" stroke-width="1"/>
<rect x="78" y="908" width="93" height="10" rx="2" fill="#FFFFFF"/>
<text x="82" y="916" font-family="Segoe UI, Arial, sans-serif" font-size="9.5" fill="#5F6368" font-weight="400" text-anchor="start" >Cobrador asignado</text>
<text x="80" y="933.5" font-family="Segoe UI, Arial, sans-serif" font-size="12" fill="#1F1F1F" font-weight="400" text-anchor="start" >Toca para elegir…   (vacío = lo gestiona el admin)</text>
<circle cx="28" cy="980" r="11" fill="#E8F0FE"/>
<text x="28" y="984" font-family="Segoe UI, Arial, sans-serif" font-size="11.5" fill="#1A73E8" font-weight="600" text-anchor="middle" >4</text>
<text x="56" y="984" font-family="Segoe UI, Arial, sans-serif" font-size="12.5" fill="#1F1F1F" font-weight="600" text-anchor="start" >Si el puerto ya lo usa otro cliente activo, la app avisa (se puede forzar)</text>
<rect x="56" y="992" width="652" height="140" rx="10" fill="#FFFFFF" stroke="#DADCE0" stroke-width="1"/>
<rect x="122.0" y="1003" width="520" height="118" rx="16" fill="#FFFFFF" stroke="#DADCE0" stroke-width="1"/>
<text x="144.0" y="1029" font-family="Segoe UI, Arial, sans-serif" font-size="14.5" fill="#1F1F1F" font-weight="600" text-anchor="start" >Puerto ya ocupado</text>
<text x="144.0" y="1050" font-family="Segoe UI, Arial, sans-serif" font-size="11" fill="#5F6368" font-weight="400" text-anchor="start" >Ese puerto ya está asignado a «Carlos Mairena». ¿Asignarlo igual a este</text>
<text x="144.0" y="1065" font-family="Segoe UI, Arial, sans-serif" font-size="11" fill="#5F6368" font-weight="400" text-anchor="start" >cliente?</text>
<rect x="517.0" y="1077" width="105" height="28" rx="14" fill="#1A73E8"/>
<text x="569.5" y="1095.5" font-family="Segoe UI, Arial, sans-serif" font-size="11.5" fill="#FFFFFF" font-weight="500" text-anchor="middle" >Asignar igual</text>
<text x="473.5" y="1095.5" font-family="Segoe UI, Arial, sans-serif" font-size="11.5" fill="#1A73E8" font-weight="500" text-anchor="middle" >Cancelar</text>
<circle cx="28" cy="1158" r="11" fill="#E8F0FE"/>
<text x="28" y="1162" font-family="Segoe UI, Arial, sans-serif" font-size="11.5" fill="#1A73E8" font-weight="600" text-anchor="middle" >5</text>
<text x="56" y="1162" font-family="Segoe UI, Arial, sans-serif" font-size="12.5" fill="#1F1F1F" font-weight="600" text-anchor="start" >«Crear cliente» — queda en la lista, el mapa y la ruta del cobrador</text>
<rect x="56" y="1170" width="652" height="98" rx="10" fill="#FFFFFF" stroke="#DADCE0" stroke-width="1"/>
<rect x="68" y="1181" width="75" height="28" rx="14" fill="#FFFFFF" stroke="#DADCE0" stroke-width="1"/>
<text x="105.5" y="1199.5" font-family="Segoe UI, Arial, sans-serif" font-size="11.5" fill="#1A73E8" font-weight="500" text-anchor="middle" >Cancelar</text>
<rect x="153" y="1181" width="105" height="28" rx="14" fill="#1A73E8"/>
<text x="205.5" y="1199.5" font-family="Segoe UI, Arial, sans-serif" font-size="11.5" fill="#FFFFFF" font-weight="500" text-anchor="middle" >Crear cliente</text>
<line x1="68" y1="1263" x2="696" y2="1263" stroke="#EEEEEE" stroke-width="0.8"/>
<rect x="618" y="1230.0" width="78" height="18" rx="9" fill="#FEF7E0"/>
<text x="657.0" y="1242.7" font-family="Segoe UI, Arial, sans-serif" font-size="10" fill="#B06000" font-weight="500" text-anchor="middle" >Sin contrato</text>
<text x="608" y="1235" font-family="Segoe UI, Arial, sans-serif" font-size="12" fill="#1F1F1F" font-weight="600" text-anchor="end" >Saldo C$ 0</text>
<text x="70" y="1235" font-family="Segoe UI, Arial, sans-serif" font-size="12.5" fill="#1F1F1F" font-weight="500" text-anchor="start" >CL0102 · María Peña Ruíz</text>
<text x="70" y="1251" font-family="Segoe UI, Arial, sans-serif" font-size="10.5" fill="#5F6368" font-weight="400" text-anchor="start" >La Barrera · Somotillo</text>
<rect x="16" y="1282" width="688" height="59" rx="8" fill="#E8F0FE"/>
<text x="28" y="1301" font-family="Segoe UI, Arial, sans-serif" font-size="11" fill="#174EA6" font-weight="400" text-anchor="start" >Nota: El código es único por empresa (si ya existe, el form no deja guardar) y después queda</text>
<text x="28" y="1316" font-family="Segoe UI, Arial, sans-serif" font-size="11" fill="#174EA6" font-weight="400" text-anchor="start" >inmutable. Un cliente sin cobrador asignado aparece con el chip «Sin cobrador» y solo lo</text>
<text x="28" y="1331" font-family="Segoe UI, Arial, sans-serif" font-size="11" fill="#174EA6" font-weight="400" text-anchor="start" >gestionan los admins.</text>
</svg>
